<svg xmlns="http://www.w3.org/2000/svg" width="1920" height="485" viewBox="0 0 1920 485">
  <g id="Group_505" data-name="Group 505" transform="translate(0 -5552.466)">
    <g id="Rectangle_11" data-name="Rectangle 11" transform="translate(0 5552.466)" fill="#19213d" stroke="#707070" stroke-width="1">
      <rect width="1920" height="485" stroke="none"/>
      <rect x="0.5" y="0.5" width="1919" height="484" fill="none"/>
    </g>
    <g id="Group_504" data-name="Group 504" transform="translate(246 5806.758)">
      <text id="Get_Social" data-name="Get Social" transform="translate(58 21.708)" fill="#19213d" font-size="23" font-family="Montserrat-Medium, Montserrat" font-weight="500"><tspan x="-57" y="0">Get Social</tspan></text>
      <g id="Group_52" data-name="Group 52" transform="translate(0 69.729)">
        <g id="Group_33" data-name="Group 33" transform="translate(0 3.251)">
          <g id="Group_32" data-name="Group 32" transform="translate(0 0)">
            <path id="Path_29" data-name="Path 29" d="M428.241,369.394h-11.5a7.088,7.088,0,0,0-7.08,7.08v11.5a7.088,7.088,0,0,0,7.08,7.08h11.5a7.088,7.088,0,0,0,7.08-7.08v-11.5a7.088,7.088,0,0,0-7.08-7.08Zm4.8,18.575a4.808,4.808,0,0,1-4.8,4.8h-11.5a4.809,4.809,0,0,1-4.8-4.8v-11.5a4.809,4.809,0,0,1,4.8-4.8h11.5a4.809,4.809,0,0,1,4.8,4.8Zm0,0" transform="translate(-409.666 -369.394)" fill="#19213d"/>
            <path id="Path_30" data-name="Path 30" d="M424.919,378.038a6.61,6.61,0,1,0,6.611,6.61,6.618,6.618,0,0,0-6.611-6.61Zm0,10.944a4.334,4.334,0,1,1,4.335-4.334,4.339,4.339,0,0,1-4.335,4.334Zm0,0" transform="translate(-412.092 -371.82)" fill="#19213d"/>
            <path id="Path_31" data-name="Path 31" d="M436.425,375.354a1.669,1.669,0,1,0,1.18.488,1.676,1.676,0,0,0-1.18-.488Zm0,0" transform="translate(-416.708 -371.067)" fill="#19213d"/>
          </g>
        </g>
        <path id="Path_32" data-name="Path 32" d="M481.939,382.927h-4.227v15.447h-5.785V382.927h-3.865v-5.31l3.865-.016-.016-3.126c0-4.336,1.179-6.991,6.3-6.991h4.259v5.326H479.8c-1.979,0-2.088.753-2.088,2.136V377.6H482.5Z" transform="translate(-389.015 -367.484)" fill="#19213d"/>
        <path id="Path_33" data-name="Path 33" d="M896.587,1143.155H878.01a6,6,0,0,0-6,6v12.432a6,6,0,0,0,6,6h18.577a6,6,0,0,0,6-6v-12.432A6,6,0,0,0,896.587,1143.155Zm-3.967,13.134-7.1,5.075a1.126,1.126,0,0,1-1.78-.916V1150.3a1.125,1.125,0,0,1,1.78-.916l7.1,5.075A1.125,1.125,0,0,1,892.62,1156.289Z" transform="translate(-721.333 -1139.903)" fill="#19213d"/>
        <g id="Group_51" data-name="Group 51" transform="translate(243.104 3.252)">
          <path id="Path_49" data-name="Path 49" d="M396.44,358.97v8.856h-5.135v-8.262c0-2.075-.741-3.492-2.6-3.492a2.808,2.808,0,0,0-2.634,1.878,3.516,3.516,0,0,0-.17,1.251v8.625h-5.135s.069-13.994,0-15.443H385.9v2.188c-.01.018-.025.034-.034.051h.034v-.051a5.1,5.1,0,0,1,4.627-2.551c3.378,0,5.911,2.207,5.911,6.949Zm-21.045-14.031a2.676,2.676,0,1,0-.067,5.337h.033a2.677,2.677,0,1,0,.034-5.337Zm-2.6,22.887h5.133V352.383h-5.133Zm0,0" transform="translate(-372.489 -344.939)" fill="#19213d"/>
        </g>
      </g>
    </g>
    <text id="Call_us" data-name="Call us" transform="translate(287 5654.466)" fill="#19213d" font-size="25" font-family="Montserrat-Medium, Montserrat" font-weight="500"><tspan x="-41" y="0">Call us</tspan></text>
    <text id="_30_2100000" data-name="+30 2100000" transform="translate(325 5681.466)" fill="#19213d" font-size="25" font-family="Montserrat-Medium, Montserrat" font-weight="500"><tspan x="-79" y="0">+30 2100000</tspan></text>
    <text id="_30_2100000-2" data-name="+30 2100000" transform="translate(325 5781.466)" fill="#19213d" font-size="25" font-family="Montserrat-Medium, Montserrat" font-weight="500"><tspan x="-79" y="0">+30 2100000</tspan></text>
    <text id="Email_us" data-name="Email us" transform="translate(300 5747.466)" fill="#19213d" font-size="25" font-family="Montserrat-Medium, Montserrat" font-weight="500"><tspan x="-54" y="0">Email us</tspan></text>
  </g>
</svg>
